<svg width="18" height="20" viewBox="0 0 18 20" fill="none" xmlns="http://www.w3.org/2000/svg">
<path d="M14.2499 13.5625C13.582 13.5625 12.9656 13.7969 12.4828 14.1883L7.6265 10.675C7.70782 10.2287 7.70782 9.77133 7.6265 9.325L12.4828 5.81172C12.9656 6.20312 13.582 6.4375 14.2499 6.4375C15.8015 6.4375 17.0624 5.17656 17.0624 3.625C17.0624 2.07344 15.8015 0.8125 14.2499 0.8125C12.6984 0.8125 11.4374 2.07344 11.4374 3.625C11.4374 3.89687 11.4749 4.15703 11.5476 4.40547L6.93509 7.74531C6.25072 6.83828 5.16322 6.25 3.93744 6.25C1.86556 6.25 0.187439 7.92812 0.187439 10C0.187439 12.0719 1.86556 13.75 3.93744 13.75C5.16322 13.75 6.25072 13.1617 6.93509 12.2547L11.5476 15.5945C11.4749 15.843 11.4374 16.1055 11.4374 16.375C11.4374 17.9266 12.6984 19.1875 14.2499 19.1875C15.8015 19.1875 17.0624 17.9266 17.0624 16.375C17.0624 14.8234 15.8015 13.5625 14.2499 13.5625ZM14.2499 2.40625C14.9226 2.40625 15.4687 2.95234 15.4687 3.625C15.4687 4.29766 14.9226 4.84375 14.2499 4.84375C13.5773 4.84375 13.0312 4.29766 13.0312 3.625C13.0312 2.95234 13.5773 2.40625 14.2499 2.40625ZM3.93744 12.0625C2.80072 12.0625 1.87494 11.1367 1.87494 10C1.87494 8.86328 2.80072 7.9375 3.93744 7.9375C5.07416 7.9375 5.99994 8.86328 5.99994 10C5.99994 11.1367 5.07416 12.0625 3.93744 12.0625ZM14.2499 17.5938C13.5773 17.5938 13.0312 17.0477 13.0312 16.375C13.0312 15.7023 13.5773 15.1562 14.2499 15.1562C14.9226 15.1562 15.4687 15.7023 15.4687 16.375C15.4687 17.0477 14.9226 17.5938 14.2499 17.5938Z" fill="#8C8C8C"/>
</svg>
